<?xml version="1.0" encoding="UTF-8" standalone="no"?><svg xmlns="http://www.w3.org/2000/svg" xmlns:xlink="http://www.w3.org/1999/xlink" fill="#000000" height="600.9" preserveAspectRatio="xMidYMid meet" version="1" viewBox="414.5 699.6 1171.0 600.9" width="1171" zoomAndPan="magnify"><g id="change1_1"><path d="M 1570.089844 699.558594 C 1561.589844 699.558594 1554.691406 706.449219 1554.691406 714.960938 C 1554.691406 881.320312 1481.058594 1030.800781 1364.679688 1132.550781 C 1436.949219 1048.421875 1480.691406 939.101562 1480.691406 819.75 C 1480.691406 811.25 1473.789062 804.359375 1465.289062 804.359375 C 1456.789062 804.359375 1449.890625 811.25 1449.890625 819.75 C 1449.890625 927.128906 1412.058594 1025.828125 1349.050781 1103.261719 C 1386.289062 1041.761719 1407.738281 969.691406 1407.738281 892.699219 C 1407.738281 884.199219 1400.851562 877.300781 1392.351562 877.300781 C 1383.839844 877.300781 1376.949219 884.199219 1376.949219 892.699219 C 1376.949219 946.488281 1365.539062 997.640625 1345.148438 1043.988281 C 1355.109375 1011.019531 1360.53125 976.089844 1360.53125 939.921875 C 1360.53125 931.410156 1353.628906 924.519531 1345.128906 924.519531 C 1336.621094 924.519531 1329.730469 931.410156 1329.730469 939.921875 C 1329.730469 1116.050781 1190.910156 1260.371094 1016.941406 1269.21875 C 1011.320312 1269.46875 1005.679688 1269.648438 1000 1269.648438 C 994.316406 1269.648438 988.679688 1269.46875 983.058594 1269.21875 C 809.085938 1260.371094 670.269531 1116.050781 670.269531 939.921875 C 670.269531 931.410156 663.375 924.519531 654.871094 924.519531 C 646.367188 924.519531 639.472656 931.410156 639.472656 939.921875 C 639.472656 976.089844 644.886719 1011.011719 654.847656 1043.980469 C 634.457031 997.640625 623.050781 946.488281 623.050781 892.699219 C 623.050781 884.199219 616.15625 877.300781 607.652344 877.300781 C 599.148438 877.300781 592.253906 884.199219 592.253906 892.699219 C 592.253906 969.691406 613.710938 1041.761719 650.945312 1103.261719 C 587.9375 1025.828125 550.105469 927.128906 550.105469 819.75 C 550.105469 811.25 543.210938 804.359375 534.707031 804.359375 C 526.203125 804.359375 519.308594 811.25 519.308594 819.75 C 519.308594 939.101562 563.046875 1048.421875 635.308594 1132.550781 C 518.941406 1030.789062 445.304688 881.320312 445.304688 714.960938 C 445.304688 706.449219 438.414062 699.558594 429.910156 699.558594 C 421.40625 699.558594 414.511719 706.449219 414.511719 714.960938 C 414.511719 871.339844 475.410156 1018.371094 585.996094 1128.960938 C 696.582031 1239.539062 843.609375 1300.441406 1000 1300.441406 C 1156.390625 1300.441406 1303.421875 1239.539062 1414 1128.960938 C 1524.589844 1018.371094 1585.488281 871.339844 1585.488281 714.960938 C 1585.488281 706.449219 1578.589844 699.558594 1570.089844 699.558594" fill="#c63eb2"/></g></svg>