<?xml version="1.0" encoding="UTF-8" standalone="no"?><svg xmlns="http://www.w3.org/2000/svg" xmlns:xlink="http://www.w3.org/1999/xlink" clip-rule="evenodd" fill="#000000" fill-rule="evenodd" height="43" image-rendering="optimizeQuality" preserveAspectRatio="xMidYMid meet" shape-rendering="geometricPrecision" text-rendering="geometricPrecision" version="1" viewBox="0.0 0.0 43.0 43.0" width="43" zoomAndPan="magnify"><g><g fill-rule="nonzero"><g fill="#e93d80" id="change1_4"><path d="M32.32 2.42c-1.93,0 -3.75,0.39 -5.41,1.1 -1.72,0.73 -3.26,1.81 -4.54,3.15 -1.15,1.2 -1.91,2.73 -2.63,4.19 -0.93,1.86 -1.82,3.64 -3.33,4.86l0 -3.77c0.42,-0.67 0.79,-1.41 1.16,-2.17 0.65,-1.29 1.32,-2.63 2.29,-3.88 -1.13,-1 -2.42,-1.82 -3.83,-2.42 -1.64,-0.68 -3.43,-1.06 -5.32,-1.06l0 -2.42c2.21,0 4.33,0.45 6.25,1.26 1.68,0.7 3.22,1.68 4.55,2.89 1.31,-1.18 2.81,-2.15 4.46,-2.85 1.95,-0.84 4.1,-1.3 6.35,-1.3l0 2.42z"/><path d="M10.71 4.98c1.71,0 3.35,0.4 4.81,1.1 1.52,0.72 2.85,1.78 3.89,3.07l-1.88 1.51c-0.82,-1.02 -1.86,-1.85 -3.05,-2.41 -1.13,-0.55 -2.41,-0.85 -3.77,-0.85l0 -2.42z"/><path d="M32.32 6.81c-0.95,0.19 -1.86,0.47 -2.72,0.84 -1.72,0.74 -3.26,1.82 -4.54,3.16 -1.15,1.2 -1.9,2.72 -2.63,4.19 -0.24,0.47 -0.48,0.94 -0.72,1.4l-2.82 0c0.51,-0.75 0.94,-1.6 1.38,-2.48 0.8,-1.61 1.64,-3.3 3.05,-4.78 1.5,-1.57 3.31,-2.84 5.34,-3.7 1.16,-0.5 2.38,-0.86 3.66,-1.08l0 2.45z"/><path d="M32.32 11.78l-0.03 0.01c-1.72,0.74 -3.26,1.82 -4.53,3.15 -0.43,0.45 -0.81,0.94 -1.15,1.46l-2.8 0c0.59,-1.08 1.27,-2.14 2.2,-3.12 1.5,-1.57 3.31,-2.84 5.34,-3.71 0.32,-0.13 0.64,-0.26 0.97,-0.38l0 2.59z"/></g><g id="change2_1"><path d="M19.86 5.9c-0.4,-0.35 -0.82,-0.69 -1.26,-1l0 0 0 0 0 0 1.53 -1.87c0.48,0.35 0.94,0.72 1.38,1.12 -0.95,0.79 -1.65,1.75 -1.65,1.75z" fill="#9340ff"/></g><g fill="#9340ff" id="change2_5"><path d="M17.28 10.37c0.1,-0.2 0.2,-0.39 0.29,-0.59 0.28,-0.55 0.56,-1.12 0.87,-1.68 -0.28,0.65 -1.16,2.27 -1.16,2.27z"/><path d="M17.21 7.07c0.44,0.32 0.85,0.66 1.23,1.03 -0.28,0.65 -1.16,2.27 -1.16,2.27l0 0c-0.38,-0.44 -0.8,-0.83 -1.26,-1.18 0,-0.03 0,-0.05 0,-0.05l1.19 -2.07z"/></g><g fill="#e93d80" id="change1_3"><path d="M40.61 32.32c0,-1.93 -0.39,-3.75 -1.1,-5.41 -0.74,-1.72 -1.82,-3.26 -3.15,-4.54 -1.21,-1.15 -2.73,-1.91 -4.19,-2.63 -1.87,-0.93 -3.64,-1.82 -4.87,-3.33l3.77 0c0.68,0.42 1.41,0.79 2.17,1.16 1.3,0.65 2.64,1.32 3.88,2.29 1.01,-1.13 1.83,-2.42 2.42,-3.83 0.69,-1.64 1.07,-3.43 1.07,-5.32l2.42 0c0,2.21 -0.45,4.33 -1.26,6.25 -0.71,1.68 -1.69,3.22 -2.89,4.55 1.17,1.31 2.14,2.81 2.85,4.46 0.83,1.95 1.3,4.1 1.3,6.35l-2.42 0z"/><path d="M38.04 10.71c0,1.71 -0.39,3.35 -1.09,4.81 -0.73,1.52 -1.78,2.85 -3.07,3.89l-1.51 -1.88c1.01,-0.82 1.84,-1.86 2.41,-3.05 0.54,-1.13 0.85,-2.41 0.85,-3.77l2.41 0z"/><path d="M36.21 32.32c-0.19,-0.95 -0.47,-1.86 -0.84,-2.72 -0.73,-1.72 -1.81,-3.26 -3.15,-4.54 -1.21,-1.15 -2.73,-1.9 -4.19,-2.63 -0.48,-0.24 -0.95,-0.48 -1.41,-0.72l0 -2.82c0.76,0.51 1.61,0.94 2.48,1.38 1.62,0.8 3.3,1.64 4.78,3.05 1.57,1.5 2.84,3.31 3.71,5.34 0.5,1.16 0.86,2.38 1.07,3.66l-2.45 0z"/><path d="M31.25 32.32l-0.01 -0.03c-0.74,-1.72 -1.82,-3.26 -3.16,-4.54 -0.45,-0.42 -0.94,-0.8 -1.46,-1.14l0 -2.8c1.08,0.59 2.15,1.27 3.12,2.2 1.58,1.5 2.85,3.31 3.71,5.34 0.14,0.32 0.27,0.64 0.38,0.97l-2.58 0z"/></g><g id="change2_2"><path d="M37.12 19.86c0.36,-0.4 0.69,-0.82 1,-1.26l0 0 0 0 0 0 1.87 1.53c-0.35,0.48 -0.72,0.94 -1.11,1.38 -0.8,-0.95 -1.76,-1.65 -1.76,-1.65z" fill="#9340ff"/></g><g fill="#9340ff" id="change2_6"><path d="M32.66 17.28c0.19,0.1 0.39,0.2 0.58,0.29 0.56,0.28 1.12,0.56 1.69,0.87 -0.65,-0.28 -2.27,-1.16 -2.27,-1.16z"/><path d="M35.95 17.21c-0.31,0.44 -0.65,0.85 -1.02,1.23 -0.65,-0.28 -2.27,-1.16 -2.27,-1.16l0 0c0.43,-0.38 0.83,-0.8 1.18,-1.26 0.03,0 0.05,0 0.05,0l2.06 1.19z"/></g><g fill="#e93d80" id="change1_1"><path d="M10.71 40.61c1.92,0 3.75,-0.39 5.41,-1.1 1.72,-0.74 3.26,-1.82 4.53,-3.15 1.15,-1.21 1.91,-2.73 2.64,-4.19 0.93,-1.87 1.81,-3.64 3.33,-4.87l0 3.77c-0.42,0.68 -0.79,1.41 -1.17,2.17 -0.65,1.3 -1.32,2.64 -2.28,3.88 1.12,1.01 2.41,1.83 3.83,2.42 1.63,0.69 3.43,1.07 5.32,1.07l0 2.42c-2.22,0 -4.33,-0.45 -6.26,-1.26 -1.67,-0.71 -3.21,-1.69 -4.55,-2.89 -1.31,1.17 -2.81,2.14 -4.45,2.85 -1.95,0.83 -4.1,1.3 -6.35,1.3l0 -2.42z"/><path d="M32.32 38.04c-1.72,0 -3.35,-0.39 -4.82,-1.09 -1.51,-0.73 -2.84,-1.78 -3.88,-3.07l1.88 -1.51c0.82,1.01 1.86,1.84 3.04,2.41 1.14,0.54 2.42,0.85 3.78,0.85l0 2.41z"/><path d="M10.71 36.21c0.94,-0.19 1.85,-0.47 2.71,-0.84 1.73,-0.73 3.27,-1.81 4.54,-3.15 1.15,-1.21 1.91,-2.73 2.64,-4.19 0.24,-0.48 0.47,-0.95 0.71,-1.41l2.82 0c-0.51,0.76 -0.93,1.61 -1.37,2.48 -0.81,1.62 -1.65,3.3 -3.05,4.78 -1.5,1.57 -3.32,2.84 -5.34,3.71 -1.16,0.5 -2.39,0.86 -3.66,1.07l0 -2.45z"/><path d="M10.71 31.25l0.02 -0.01c1.73,-0.74 3.27,-1.82 4.54,-3.16 0.43,-0.45 0.8,-0.94 1.14,-1.46l2.81 0c-0.59,1.08 -1.27,2.15 -2.2,3.12 -1.5,1.58 -3.32,2.85 -5.34,3.71 -0.32,0.14 -0.64,0.27 -0.97,0.38l0 -2.58z"/></g><g id="change2_3"><path d="M23.17 37.12c0.4,0.36 0.82,0.69 1.26,1l0 0 0 0 0 0 -1.54 1.87c-0.48,-0.35 -0.94,-0.72 -1.38,-1.11 0.96,-0.8 1.66,-1.76 1.66,-1.76z" fill="#9340ff"/></g><g fill="#9340ff" id="change2_8"><path d="M25.74 32.66c-0.1,0.19 -0.19,0.39 -0.29,0.58 -0.28,0.56 -0.56,1.12 -0.87,1.69 0.28,-0.65 1.16,-2.27 1.16,-2.27z"/><path d="M25.81 35.95c-0.43,-0.31 -0.84,-0.65 -1.23,-1.02 0.28,-0.65 1.16,-2.27 1.16,-2.27l0 0c0.38,0.43 0.81,0.83 1.26,1.18 0,0.03 0,0.05 0,0.05l-1.19 2.06z"/></g><g fill="#e93d80" id="change1_2"><path d="M2.42 10.71c0,1.92 0.39,3.75 1.1,5.41 0.73,1.72 1.81,3.26 3.15,4.53 1.2,1.15 2.73,1.91 4.19,2.64 1.86,0.93 3.64,1.81 4.86,3.33l-3.77 0c-0.67,-0.42 -1.41,-0.79 -2.17,-1.17 -1.29,-0.65 -2.63,-1.32 -3.88,-2.28 -1,1.12 -1.82,2.41 -2.42,3.83 -0.68,1.63 -1.06,3.43 -1.06,5.32l-2.42 0c0,-2.22 0.45,-4.33 1.26,-6.26 0.7,-1.67 1.68,-3.21 2.89,-4.55 -1.18,-1.31 -2.15,-2.81 -2.85,-4.45 -0.84,-1.95 -1.3,-4.1 -1.3,-6.35l2.42 0z"/><path d="M4.98 32.32c0,-1.72 0.4,-3.35 1.1,-4.82 0.72,-1.51 1.78,-2.84 3.07,-3.88l1.51 1.88c-1.02,0.82 -1.85,1.86 -2.41,3.04 -0.55,1.14 -0.85,2.42 -0.85,3.78l-2.42 0z"/><path d="M6.81 10.71c0.19,0.94 0.47,1.85 0.84,2.71 0.74,1.73 1.82,3.27 3.16,4.54 1.2,1.15 2.72,1.91 4.19,2.64 0.47,0.24 0.94,0.47 1.4,0.71l0 2.82c-0.75,-0.51 -1.6,-0.93 -2.48,-1.37 -1.61,-0.81 -3.3,-1.65 -4.78,-3.05 -1.57,-1.5 -2.84,-3.32 -3.7,-5.34 -0.5,-1.16 -0.86,-2.39 -1.08,-3.66l2.45 0z"/><path d="M11.78 10.71l0.01 0.02c0.74,1.73 1.82,3.27 3.15,4.54 0.45,0.43 0.94,0.8 1.46,1.14l0 2.81c-1.08,-0.59 -2.14,-1.27 -3.12,-2.2 -1.57,-1.5 -2.84,-3.32 -3.71,-5.34 -0.13,-0.32 -0.26,-0.64 -0.38,-0.97l2.59 0z"/></g><g id="change2_4"><path d="M5.9 23.17c-0.35,0.4 -0.69,0.82 -1,1.26l0 0 0 0 0 0 -1.87 -1.54c0.35,-0.48 0.72,-0.94 1.12,-1.38 0.79,0.96 1.75,1.66 1.75,1.66z" fill="#9340ff"/></g><g fill="#9340ff" id="change2_7"><path d="M10.37 25.74c-0.2,-0.1 -0.39,-0.19 -0.59,-0.29 -0.55,-0.28 -1.12,-0.56 -1.68,-0.87 0.65,0.28 2.27,1.16 2.27,1.16z"/><path d="M7.07 25.81c0.32,-0.43 0.66,-0.84 1.03,-1.23 0.65,0.28 2.27,1.16 2.27,1.16l0 0c-0.44,0.38 -0.83,0.81 -1.18,1.26 -0.03,0 -0.05,0 -0.05,0l-2.07 -1.19z"/></g></g></g></svg>